<mxfile host="app.diagrams.net" agent="Mozilla/5.0 (Windows NT 10.0; Win64; x64; rv:137.0) Gecko/20100101 Firefox/137.0" version="26.2.14">
  <diagram name="Page-1" id="ibmDFZ82ZpprkkH4J8ru">
    <mxGraphModel dx="2404" dy="1985" grid="1" gridSize="10" guides="1" tooltips="1" connect="1" arrows="1" fold="1" page="1" pageScale="1" pageWidth="850" pageHeight="1100" math="0" shadow="0">
      <root>
        <mxCell id="0" />
        <mxCell id="1" parent="0" />
        <mxCell id="oR5H9QgqDNqwV4JY2G0A-8" value="" style="verticalLabelPosition=bottom;verticalAlign=top;html=1;shadow=0;dashed=0;strokeWidth=1;shape=mxgraph.android.phone2;strokeColor=#c0c0c0;fillColor=#000000;gradientColor=none;" parent="1" vertex="1">
          <mxGeometry width="480" height="800" as="geometry" />
        </mxCell>
        <mxCell id="oR5H9QgqDNqwV4JY2G0A-21" value="" style="rounded=1;whiteSpace=wrap;html=1;textShadow=0;labelBorderColor=none;shadow=1;perimeterSpacing=0;glass=0;" parent="1" vertex="1">
          <mxGeometry x="60" y="160" width="360" height="480" as="geometry" />
        </mxCell>
        <mxCell id="oR5H9QgqDNqwV4JY2G0A-22" value="Ingresar" style="text;html=1;align=center;verticalAlign=middle;whiteSpace=wrap;rounded=0;fontStyle=1;fontSize=24;" parent="1" vertex="1">
          <mxGeometry x="90" y="170" width="110" height="30" as="geometry" />
        </mxCell>
        <mxCell id="oR5H9QgqDNqwV4JY2G0A-23" value="" style="rounded=1;whiteSpace=wrap;html=1;" parent="1" vertex="1">
          <mxGeometry x="70" y="240" width="340" height="40" as="geometry" />
        </mxCell>
        <mxCell id="oR5H9QgqDNqwV4JY2G0A-24" value="Número de celular&lt;span style=&quot;color: rgb(255, 0, 0);&quot;&gt;*&lt;/span&gt;" style="text;html=1;align=left;verticalAlign=middle;whiteSpace=wrap;rounded=0;fontSize=14;" parent="1" vertex="1">
          <mxGeometry x="70" y="220" width="130" height="20" as="geometry" />
        </mxCell>
        <mxCell id="oR5H9QgqDNqwV4JY2G0A-25" value="00 00 00 00 00" style="text;html=1;align=left;verticalAlign=middle;whiteSpace=wrap;rounded=0;fontSize=16;fontColor=#CDCDCD;labelBackgroundColor=none;" parent="1" vertex="1">
          <mxGeometry x="80" y="250" width="130" height="20" as="geometry" />
        </mxCell>
        <mxCell id="oR5H9QgqDNqwV4JY2G0A-49" value="" style="edgeStyle=orthogonalEdgeStyle;rounded=0;orthogonalLoop=1;jettySize=auto;html=1;strokeColor=#FF8000;" parent="1" source="oR5H9QgqDNqwV4JY2G0A-26" target="oR5H9QgqDNqwV4JY2G0A-48" edge="1">
          <mxGeometry relative="1" as="geometry" />
        </mxCell>
        <mxCell id="oR5H9QgqDNqwV4JY2G0A-95" value="onClick" style="edgeLabel;html=1;align=center;verticalAlign=middle;resizable=0;points=[];" parent="oR5H9QgqDNqwV4JY2G0A-49" vertex="1" connectable="0">
          <mxGeometry x="-0.204" y="1" relative="1" as="geometry">
            <mxPoint as="offset" />
          </mxGeometry>
        </mxCell>
        <mxCell id="oR5H9QgqDNqwV4JY2G0A-113" style="edgeStyle=orthogonalEdgeStyle;rounded=0;orthogonalLoop=1;jettySize=auto;html=1;strokeColor=#00FF00;curved=1;" parent="1" source="oR5H9QgqDNqwV4JY2G0A-26" target="oR5H9QgqDNqwV4JY2G0A-114" edge="1">
          <mxGeometry relative="1" as="geometry">
            <mxPoint x="520" y="680" as="targetPoint" />
          </mxGeometry>
        </mxCell>
        <mxCell id="oR5H9QgqDNqwV4JY2G0A-26" value="Continuar" style="strokeWidth=1;shadow=0;dashed=0;align=center;html=1;shape=mxgraph.mockup.buttons.button;strokeColor=#666666;fontColor=#ffffff;mainText=;buttonStyle=round;fontSize=17;fontStyle=1;fillColor=#008cff;whiteSpace=wrap;" parent="1" vertex="1">
          <mxGeometry x="165" y="590" width="150" height="40" as="geometry" />
        </mxCell>
        <mxCell id="oR5H9QgqDNqwV4JY2G0A-48" value="¿Formulario es válido?" style="rhombus;whiteSpace=wrap;html=1;fontSize=12;fillColor=default;strokeColor=#666666;fontColor=#000000;strokeWidth=1;shadow=0;dashed=0;fontStyle=0;labelPosition=center;verticalLabelPosition=middle;align=center;verticalAlign=middle;" parent="1" vertex="1">
          <mxGeometry x="560" y="360" width="160" height="80" as="geometry" />
        </mxCell>
        <mxCell id="oR5H9QgqDNqwV4JY2G0A-50" style="edgeStyle=orthogonalEdgeStyle;rounded=0;orthogonalLoop=1;jettySize=auto;html=1;exitX=0.5;exitY=0;exitDx=0;exitDy=0;fontColor=#00FFFF;strokeColor=#00FF00;entryX=1;entryY=0.5;entryDx=0;entryDy=0;" parent="1" source="oR5H9QgqDNqwV4JY2G0A-48" target="oR5H9QgqDNqwV4JY2G0A-110" edge="1">
          <mxGeometry relative="1" as="geometry">
            <mxPoint x="700" y="240" as="targetPoint" />
            <Array as="points">
              <mxPoint x="640" y="280" />
            </Array>
          </mxGeometry>
        </mxCell>
        <mxCell id="oR5H9QgqDNqwV4JY2G0A-57" value="&lt;div&gt;No&lt;/div&gt;" style="edgeLabel;html=1;align=center;verticalAlign=middle;resizable=0;points=[];" parent="oR5H9QgqDNqwV4JY2G0A-50" vertex="1" connectable="0">
          <mxGeometry x="-0.456" y="3" relative="1" as="geometry">
            <mxPoint x="33" y="37" as="offset" />
          </mxGeometry>
        </mxCell>
        <mxCell id="oR5H9QgqDNqwV4JY2G0A-52" value="Por favor revisa que tu número sea el correcto" style="text;html=1;align=left;verticalAlign=middle;whiteSpace=wrap;rounded=0;fontColor=#FF0000;labelBackgroundColor=none;labelBorderColor=#00FFFF;" parent="1" vertex="1">
          <mxGeometry x="70" y="276" width="260" height="30" as="geometry" />
        </mxCell>
        <mxCell id="oR5H9QgqDNqwV4JY2G0A-53" style="edgeStyle=orthogonalEdgeStyle;rounded=0;orthogonalLoop=1;jettySize=auto;html=1;entryX=-0.003;entryY=0.53;entryDx=0;entryDy=0;entryPerimeter=0;exitX=0;exitY=0.5;exitDx=0;exitDy=0;strokeColor=#00FF00;" parent="1" source="oR5H9QgqDNqwV4JY2G0A-23" target="oR5H9QgqDNqwV4JY2G0A-26" edge="1">
          <mxGeometry relative="1" as="geometry">
            <Array as="points">
              <mxPoint x="-80" y="260" />
              <mxPoint x="-80" y="611" />
            </Array>
          </mxGeometry>
        </mxCell>
        <mxCell id="oR5H9QgqDNqwV4JY2G0A-56" value="&lt;div&gt;Desactivar botón cuando&lt;/div&gt;&lt;div&gt;el campo esta vacío&lt;/div&gt;" style="edgeLabel;html=1;align=center;verticalAlign=middle;resizable=0;points=[];" parent="oR5H9QgqDNqwV4JY2G0A-53" vertex="1" connectable="0">
          <mxGeometry x="-0.0855" y="-3" relative="1" as="geometry">
            <mxPoint as="offset" />
          </mxGeometry>
        </mxCell>
        <mxCell id="oR5H9QgqDNqwV4JY2G0A-58" value="" style="verticalLabelPosition=bottom;verticalAlign=top;html=1;shadow=0;dashed=0;strokeWidth=1;shape=mxgraph.android.phone2;strokeColor=#c0c0c0;fillColor=#000000;" parent="1" vertex="1">
          <mxGeometry x="1000" width="480" height="800" as="geometry" />
        </mxCell>
        <mxCell id="oR5H9QgqDNqwV4JY2G0A-59" value="" style="rounded=1;whiteSpace=wrap;html=1;textShadow=0;labelBorderColor=none;shadow=1;perimeterSpacing=0;glass=0;" parent="1" vertex="1">
          <mxGeometry x="1060" y="160" width="360" height="480" as="geometry" />
        </mxCell>
        <mxCell id="oR5H9QgqDNqwV4JY2G0A-60" value="Ingresar" style="text;html=1;align=center;verticalAlign=middle;whiteSpace=wrap;rounded=0;fontStyle=1;fontSize=24;" parent="1" vertex="1">
          <mxGeometry x="1090" y="170" width="110" height="30" as="geometry" />
        </mxCell>
        <mxCell id="oR5H9QgqDNqwV4JY2G0A-61" value="" style="rounded=1;whiteSpace=wrap;html=1;fillColor=#CDCDCD;" parent="1" vertex="1">
          <mxGeometry x="1070" y="240" width="340" height="40" as="geometry" />
        </mxCell>
        <mxCell id="oR5H9QgqDNqwV4JY2G0A-62" value="Número de celular&lt;span style=&quot;color: rgb(255, 0, 0);&quot;&gt;*&lt;/span&gt;" style="text;html=1;align=left;verticalAlign=middle;whiteSpace=wrap;rounded=0;fontSize=14;" parent="1" vertex="1">
          <mxGeometry x="1070" y="220" width="130" height="20" as="geometry" />
        </mxCell>
        <mxCell id="oR5H9QgqDNqwV4JY2G0A-63" value="9981053651" style="text;html=1;align=left;verticalAlign=middle;whiteSpace=wrap;rounded=0;fontSize=16;fontColor=#000000;labelBackgroundColor=none;" parent="1" vertex="1">
          <mxGeometry x="1080" y="250" width="130" height="20" as="geometry" />
        </mxCell>
        <mxCell id="oR5H9QgqDNqwV4JY2G0A-116" style="rounded=0;orthogonalLoop=1;jettySize=auto;html=1;entryX=0.5;entryY=0;entryDx=0;entryDy=0;exitX=-0.009;exitY=0.745;exitDx=0;exitDy=0;exitPerimeter=0;strokeColor=#00FF00;startArrow=none;startFill=0;elbow=vertical;edgeStyle=orthogonalEdgeStyle;curved=1;" parent="1" source="oR5H9QgqDNqwV4JY2G0A-64" target="oR5H9QgqDNqwV4JY2G0A-114" edge="1">
          <mxGeometry relative="1" as="geometry" />
        </mxCell>
        <mxCell id="1x_nCAr4HbJ1y6fn0Rfu-1" style="edgeStyle=orthogonalEdgeStyle;rounded=0;orthogonalLoop=1;jettySize=auto;html=1;entryX=0.5;entryY=1;entryDx=0;entryDy=0;fontColor=#FF8000;strokeColor=#FF8000;" edge="1" parent="1" source="oR5H9QgqDNqwV4JY2G0A-64" target="1x_nCAr4HbJ1y6fn0Rfu-2">
          <mxGeometry relative="1" as="geometry">
            <mxPoint x="1530" y="340" as="targetPoint" />
            <Array as="points">
              <mxPoint x="1640" y="610" />
            </Array>
          </mxGeometry>
        </mxCell>
        <mxCell id="1x_nCAr4HbJ1y6fn0Rfu-5" value="Text" style="edgeLabel;html=1;align=center;verticalAlign=middle;resizable=0;points=[];" vertex="1" connectable="0" parent="1x_nCAr4HbJ1y6fn0Rfu-1">
          <mxGeometry x="-0.2162" relative="1" as="geometry">
            <mxPoint as="offset" />
          </mxGeometry>
        </mxCell>
        <mxCell id="oR5H9QgqDNqwV4JY2G0A-64" value="Verificar" style="strokeWidth=1;shadow=0;dashed=0;align=center;html=1;shape=mxgraph.mockup.buttons.button;strokeColor=#666666;fontColor=#ffffff;mainText=;buttonStyle=round;fontSize=17;fontStyle=1;fillColor=#008cff;whiteSpace=wrap;" parent="1" vertex="1">
          <mxGeometry x="1165" y="590" width="150" height="40" as="geometry" />
        </mxCell>
        <mxCell id="oR5H9QgqDNqwV4JY2G0A-66" style="edgeStyle=orthogonalEdgeStyle;rounded=0;orthogonalLoop=1;jettySize=auto;html=1;strokeColor=#FF8000;" parent="1" source="oR5H9QgqDNqwV4JY2G0A-48" edge="1">
          <mxGeometry relative="1" as="geometry">
            <mxPoint x="800" y="400" as="targetPoint" />
          </mxGeometry>
        </mxCell>
        <mxCell id="oR5H9QgqDNqwV4JY2G0A-67" value="&lt;div&gt;Si&lt;/div&gt;" style="edgeLabel;html=1;align=center;verticalAlign=middle;resizable=0;points=[];" parent="oR5H9QgqDNqwV4JY2G0A-66" vertex="1" connectable="0">
          <mxGeometry x="-0.175" y="-2" relative="1" as="geometry">
            <mxPoint y="-2" as="offset" />
          </mxGeometry>
        </mxCell>
        <mxCell id="oR5H9QgqDNqwV4JY2G0A-69" value="Código de verificación" style="text;html=1;align=left;verticalAlign=middle;whiteSpace=wrap;rounded=0;fontSize=14;" parent="1" vertex="1">
          <mxGeometry x="1070" y="440" width="150" height="20" as="geometry" />
        </mxCell>
        <mxCell id="oR5H9QgqDNqwV4JY2G0A-83" value="Hemos enviado un código de verificación a tu número (9981053651). Por favor ingrésalo a continuación." style="text;html=1;align=left;verticalAlign=top;whiteSpace=wrap;rounded=0;fontSize=14;" parent="1" vertex="1">
          <mxGeometry x="1070" y="386" width="340" height="64" as="geometry" />
        </mxCell>
        <mxCell id="oR5H9QgqDNqwV4JY2G0A-84" value="" style="group;fontSize=12;" parent="1" vertex="1" connectable="0">
          <mxGeometry x="1070" y="460" width="340" height="40" as="geometry" />
        </mxCell>
        <mxCell id="oR5H9QgqDNqwV4JY2G0A-68" value="" style="rounded=1;whiteSpace=wrap;html=1;" parent="oR5H9QgqDNqwV4JY2G0A-84" vertex="1">
          <mxGeometry width="44.347826086956516" height="40" as="geometry" />
        </mxCell>
        <mxCell id="oR5H9QgqDNqwV4JY2G0A-70" value="0" style="text;html=1;align=left;verticalAlign=middle;whiteSpace=wrap;rounded=0;fontSize=16;fontColor=#CDCDCD;labelBackgroundColor=none;" parent="oR5H9QgqDNqwV4JY2G0A-84" vertex="1">
          <mxGeometry x="14.782608695652172" y="10" width="14.782608695652172" height="20" as="geometry" />
        </mxCell>
        <mxCell id="oR5H9QgqDNqwV4JY2G0A-73" value="" style="rounded=1;whiteSpace=wrap;html=1;" parent="oR5H9QgqDNqwV4JY2G0A-84" vertex="1">
          <mxGeometry x="59.13043478260869" width="44.347826086956516" height="40" as="geometry" />
        </mxCell>
        <mxCell id="oR5H9QgqDNqwV4JY2G0A-74" value="0" style="text;html=1;align=left;verticalAlign=middle;whiteSpace=wrap;rounded=0;fontSize=16;fontColor=#CDCDCD;labelBackgroundColor=none;" parent="oR5H9QgqDNqwV4JY2G0A-84" vertex="1">
          <mxGeometry x="73.91304347826086" y="10" width="14.782608695652172" height="20" as="geometry" />
        </mxCell>
        <mxCell id="oR5H9QgqDNqwV4JY2G0A-75" value="" style="rounded=1;whiteSpace=wrap;html=1;" parent="oR5H9QgqDNqwV4JY2G0A-84" vertex="1">
          <mxGeometry x="118.26086956521738" width="44.347826086956516" height="40" as="geometry" />
        </mxCell>
        <mxCell id="oR5H9QgqDNqwV4JY2G0A-76" value="0" style="text;html=1;align=left;verticalAlign=middle;whiteSpace=wrap;rounded=0;fontSize=16;fontColor=#CDCDCD;labelBackgroundColor=none;" parent="oR5H9QgqDNqwV4JY2G0A-84" vertex="1">
          <mxGeometry x="133.04347826086956" y="10" width="14.782608695652172" height="20" as="geometry" />
        </mxCell>
        <mxCell id="oR5H9QgqDNqwV4JY2G0A-77" value="" style="rounded=1;whiteSpace=wrap;html=1;" parent="oR5H9QgqDNqwV4JY2G0A-84" vertex="1">
          <mxGeometry x="177.39130434782606" width="44.347826086956516" height="40" as="geometry" />
        </mxCell>
        <mxCell id="oR5H9QgqDNqwV4JY2G0A-78" value="0" style="text;html=1;align=left;verticalAlign=middle;whiteSpace=wrap;rounded=0;fontSize=16;fontColor=#CDCDCD;labelBackgroundColor=none;" parent="oR5H9QgqDNqwV4JY2G0A-84" vertex="1">
          <mxGeometry x="192.17391304347825" y="10" width="14.782608695652172" height="20" as="geometry" />
        </mxCell>
        <mxCell id="oR5H9QgqDNqwV4JY2G0A-79" value="" style="rounded=1;whiteSpace=wrap;html=1;" parent="oR5H9QgqDNqwV4JY2G0A-84" vertex="1">
          <mxGeometry x="236.52173913043475" width="44.347826086956516" height="40" as="geometry" />
        </mxCell>
        <mxCell id="oR5H9QgqDNqwV4JY2G0A-80" value="0" style="text;html=1;align=left;verticalAlign=middle;whiteSpace=wrap;rounded=0;fontSize=16;fontColor=#CDCDCD;labelBackgroundColor=none;" parent="oR5H9QgqDNqwV4JY2G0A-84" vertex="1">
          <mxGeometry x="251.30434782608694" y="10" width="14.782608695652172" height="20" as="geometry" />
        </mxCell>
        <mxCell id="oR5H9QgqDNqwV4JY2G0A-81" value="" style="rounded=1;whiteSpace=wrap;html=1;" parent="oR5H9QgqDNqwV4JY2G0A-84" vertex="1">
          <mxGeometry x="295.65217391304344" width="44.347826086956516" height="40" as="geometry" />
        </mxCell>
        <mxCell id="oR5H9QgqDNqwV4JY2G0A-82" value="0" style="text;html=1;align=left;verticalAlign=middle;whiteSpace=wrap;rounded=0;fontSize=16;fontColor=#CDCDCD;labelBackgroundColor=none;" parent="oR5H9QgqDNqwV4JY2G0A-84" vertex="1">
          <mxGeometry x="310.4347826086956" y="10" width="14.782608695652172" height="20" as="geometry" />
        </mxCell>
        <mxCell id="oR5H9QgqDNqwV4JY2G0A-93" value="" style="group" parent="1" vertex="1" connectable="0">
          <mxGeometry x="1070" y="500" width="240" height="30" as="geometry" />
        </mxCell>
        <mxCell id="oR5H9QgqDNqwV4JY2G0A-85" value="Volver a enviar código de verificación (0:27)" style="text;html=1;align=left;verticalAlign=middle;whiteSpace=wrap;rounded=0;fontColor=#7F7F7F;fontStyle=0" parent="oR5H9QgqDNqwV4JY2G0A-93" vertex="1">
          <mxGeometry width="240" height="30" as="geometry" />
        </mxCell>
        <mxCell id="oR5H9QgqDNqwV4JY2G0A-91" value="" style="endArrow=none;html=1;rounded=0;strokeColor=#7F7F7F;" parent="oR5H9QgqDNqwV4JY2G0A-93" edge="1">
          <mxGeometry width="50" height="50" relative="1" as="geometry">
            <mxPoint y="16.5" as="sourcePoint" />
            <mxPoint x="200" y="16.5" as="targetPoint" />
          </mxGeometry>
        </mxCell>
        <mxCell id="oR5H9QgqDNqwV4JY2G0A-98" value="&lt;div&gt;Activar / Desactivar según límite de peticiones&lt;/div&gt;" style="shape=hexagon;perimeter=hexagonPerimeter2;whiteSpace=wrap;html=1;fixedSize=1;" parent="1" vertex="1">
          <mxGeometry x="800" y="880" width="160" height="80" as="geometry" />
        </mxCell>
        <mxCell id="oR5H9QgqDNqwV4JY2G0A-94" style="edgeStyle=orthogonalEdgeStyle;rounded=0;orthogonalLoop=1;jettySize=auto;html=1;exitX=0;exitY=0.5;exitDx=0;exitDy=0;strokeColor=#00FF00;entryX=0.5;entryY=0;entryDx=0;entryDy=0;curved=1;" parent="1" source="oR5H9QgqDNqwV4JY2G0A-85" target="oR5H9QgqDNqwV4JY2G0A-98" edge="1">
          <mxGeometry relative="1" as="geometry">
            <mxPoint x="640" y="680" as="targetPoint" />
          </mxGeometry>
        </mxCell>
        <mxCell id="oR5H9QgqDNqwV4JY2G0A-100" style="edgeStyle=orthogonalEdgeStyle;rounded=0;orthogonalLoop=1;jettySize=auto;html=1;exitX=0;exitY=0.5;exitDx=0;exitDy=0;entryX=0.5;entryY=1;entryDx=0;entryDy=0;" parent="1" source="oR5H9QgqDNqwV4JY2G0A-85" target="oR5H9QgqDNqwV4JY2G0A-102" edge="1">
          <mxGeometry relative="1" as="geometry">
            <mxPoint x="799" y="520" as="targetPoint" />
            <Array as="points">
              <mxPoint x="1040" y="515" />
              <mxPoint x="1040" y="455" />
              <mxPoint x="860" y="455" />
            </Array>
          </mxGeometry>
        </mxCell>
        <mxCell id="oR5H9QgqDNqwV4JY2G0A-101" value="&lt;div&gt;onClick&lt;/div&gt;" style="edgeLabel;html=1;align=center;verticalAlign=middle;resizable=0;points=[];" parent="oR5H9QgqDNqwV4JY2G0A-100" vertex="1" connectable="0">
          <mxGeometry x="-0.2511" y="2" relative="1" as="geometry">
            <mxPoint x="-22" y="-2" as="offset" />
          </mxGeometry>
        </mxCell>
        <mxCell id="oR5H9QgqDNqwV4JY2G0A-102" value="Enviar código de verificación" style="rounded=0;whiteSpace=wrap;html=1;" parent="1" vertex="1">
          <mxGeometry x="800" y="370" width="120" height="60" as="geometry" />
        </mxCell>
        <mxCell id="oR5H9QgqDNqwV4JY2G0A-103" style="edgeStyle=orthogonalEdgeStyle;rounded=0;orthogonalLoop=1;jettySize=auto;html=1;entryX=0.002;entryY=0.5;entryDx=0;entryDy=0;entryPerimeter=0;strokeColor=#FF8000;" parent="1" source="oR5H9QgqDNqwV4JY2G0A-102" target="oR5H9QgqDNqwV4JY2G0A-58" edge="1">
          <mxGeometry relative="1" as="geometry" />
        </mxCell>
        <mxCell id="oR5H9QgqDNqwV4JY2G0A-104" style="edgeStyle=orthogonalEdgeStyle;rounded=0;orthogonalLoop=1;jettySize=auto;html=1;entryX=0.005;entryY=0.535;entryDx=0;entryDy=0;entryPerimeter=0;exitX=0;exitY=0.5;exitDx=0;exitDy=0;strokeColor=light-dark(#00ff00, #006f6f);" parent="1" source="oR5H9QgqDNqwV4JY2G0A-68" target="oR5H9QgqDNqwV4JY2G0A-64" edge="1">
          <mxGeometry relative="1" as="geometry">
            <Array as="points">
              <mxPoint x="810" y="480" />
              <mxPoint x="810" y="611" />
            </Array>
          </mxGeometry>
        </mxCell>
        <mxCell id="oR5H9QgqDNqwV4JY2G0A-108" value="&lt;div&gt;Activar botón&lt;/div&gt;&lt;div&gt;cuando campo lleno&lt;/div&gt;" style="edgeLabel;html=1;align=center;verticalAlign=middle;resizable=0;points=[];" parent="oR5H9QgqDNqwV4JY2G0A-104" vertex="1" connectable="0">
          <mxGeometry x="-0.2128" y="-2" relative="1" as="geometry">
            <mxPoint x="-8" y="-14" as="offset" />
          </mxGeometry>
        </mxCell>
        <mxCell id="oR5H9QgqDNqwV4JY2G0A-111" style="edgeStyle=orthogonalEdgeStyle;rounded=0;orthogonalLoop=1;jettySize=auto;html=1;strokeColor=#00FF00;" parent="1" source="oR5H9QgqDNqwV4JY2G0A-110" edge="1">
          <mxGeometry relative="1" as="geometry">
            <mxPoint x="480" y="280" as="targetPoint" />
          </mxGeometry>
        </mxCell>
        <mxCell id="oR5H9QgqDNqwV4JY2G0A-110" value="&lt;div&gt;Mostrar errores&lt;/div&gt;" style="rounded=0;whiteSpace=wrap;html=1;gradientColor=none;strokeColor=#00FFFF;strokeWidth=2;" parent="1" vertex="1">
          <mxGeometry x="500" y="260" width="120" height="40" as="geometry" />
        </mxCell>
        <mxCell id="oR5H9QgqDNqwV4JY2G0A-114" value="Protegido por Captcha" style="shape=hexagon;perimeter=hexagonPerimeter2;whiteSpace=wrap;html=1;fixedSize=1;" parent="1" vertex="1">
          <mxGeometry x="580" y="880" width="120" height="80" as="geometry" />
        </mxCell>
        <mxCell id="1x_nCAr4HbJ1y6fn0Rfu-9" style="edgeStyle=orthogonalEdgeStyle;rounded=0;orthogonalLoop=1;jettySize=auto;html=1;exitX=0.5;exitY=0;exitDx=0;exitDy=0;entryX=0.5;entryY=1;entryDx=0;entryDy=0;strokeColor=#00FF00;" edge="1" parent="1" source="1x_nCAr4HbJ1y6fn0Rfu-2" target="1x_nCAr4HbJ1y6fn0Rfu-8">
          <mxGeometry relative="1" as="geometry" />
        </mxCell>
        <mxCell id="1x_nCAr4HbJ1y6fn0Rfu-46" value="&lt;div&gt;No&lt;/div&gt;" style="edgeLabel;html=1;align=center;verticalAlign=middle;resizable=0;points=[];" vertex="1" connectable="0" parent="1x_nCAr4HbJ1y6fn0Rfu-9">
          <mxGeometry x="-0.1333" y="1" relative="1" as="geometry">
            <mxPoint as="offset" />
          </mxGeometry>
        </mxCell>
        <mxCell id="1x_nCAr4HbJ1y6fn0Rfu-17" value="" style="edgeStyle=orthogonalEdgeStyle;rounded=0;orthogonalLoop=1;jettySize=auto;html=1;fontColor=#FF8000;strokeColor=#FF8000;" edge="1" parent="1" source="1x_nCAr4HbJ1y6fn0Rfu-2" target="1x_nCAr4HbJ1y6fn0Rfu-16">
          <mxGeometry relative="1" as="geometry" />
        </mxCell>
        <mxCell id="1x_nCAr4HbJ1y6fn0Rfu-47" value="Si" style="edgeLabel;html=1;align=center;verticalAlign=middle;resizable=0;points=[];" vertex="1" connectable="0" parent="1x_nCAr4HbJ1y6fn0Rfu-17">
          <mxGeometry x="-0.1" y="1" relative="1" as="geometry">
            <mxPoint as="offset" />
          </mxGeometry>
        </mxCell>
        <mxCell id="1x_nCAr4HbJ1y6fn0Rfu-2" value="¿Código es válido?" style="rhombus;whiteSpace=wrap;html=1;" vertex="1" parent="1">
          <mxGeometry x="1560" y="360" width="160" height="80" as="geometry" />
        </mxCell>
        <mxCell id="1x_nCAr4HbJ1y6fn0Rfu-3" value="Por favor revisa que el código de verificación sea el correcto" style="text;html=1;align=left;verticalAlign=top;whiteSpace=wrap;rounded=0;fontColor=#FF0000;labelBackgroundColor=none;labelBorderColor=none;strokeColor=#00FFFF;" vertex="1" parent="1">
          <mxGeometry x="1070" y="520" width="340" height="20" as="geometry" />
        </mxCell>
        <mxCell id="1x_nCAr4HbJ1y6fn0Rfu-7" style="edgeStyle=orthogonalEdgeStyle;rounded=0;orthogonalLoop=1;jettySize=auto;html=1;entryX=0.5;entryY=0;entryDx=0;entryDy=0;curved=1;strokeColor=#00FF00;" edge="1" parent="1" source="oR5H9QgqDNqwV4JY2G0A-85" target="oR5H9QgqDNqwV4JY2G0A-114">
          <mxGeometry relative="1" as="geometry" />
        </mxCell>
        <mxCell id="1x_nCAr4HbJ1y6fn0Rfu-8" value="&lt;div&gt;Mostrar errores&lt;/div&gt;" style="rounded=0;whiteSpace=wrap;html=1;gradientColor=none;strokeColor=#00FFFF;strokeWidth=2;" vertex="1" parent="1">
          <mxGeometry x="1580" y="260" width="120" height="40" as="geometry" />
        </mxCell>
        <mxCell id="1x_nCAr4HbJ1y6fn0Rfu-14" style="edgeStyle=orthogonalEdgeStyle;rounded=0;orthogonalLoop=1;jettySize=auto;html=1;exitX=0;exitY=0.5;exitDx=0;exitDy=0;entryX=1.004;entryY=0.35;entryDx=0;entryDy=0;entryPerimeter=0;strokeColor=#00FF00;" edge="1" parent="1" source="1x_nCAr4HbJ1y6fn0Rfu-8" target="oR5H9QgqDNqwV4JY2G0A-58">
          <mxGeometry relative="1" as="geometry" />
        </mxCell>
        <mxCell id="1x_nCAr4HbJ1y6fn0Rfu-16" value="¿Nombre coincide con cuenta?" style="rhombus;whiteSpace=wrap;html=1;" vertex="1" parent="1">
          <mxGeometry x="1800" y="360" width="160" height="80" as="geometry" />
        </mxCell>
        <mxCell id="1x_nCAr4HbJ1y6fn0Rfu-18" value="" style="verticalLabelPosition=bottom;verticalAlign=top;html=1;shadow=0;dashed=0;strokeWidth=1;shape=mxgraph.android.phone2;strokeColor=#c0c0c0;fillColor=#000000;" vertex="1" parent="1">
          <mxGeometry x="2040" y="-440" width="480" height="800" as="geometry" />
        </mxCell>
        <mxCell id="1x_nCAr4HbJ1y6fn0Rfu-19" value="" style="rounded=1;whiteSpace=wrap;html=1;textShadow=0;labelBorderColor=none;shadow=1;perimeterSpacing=0;glass=0;" vertex="1" parent="1">
          <mxGeometry x="2100" y="-280" width="360" height="480" as="geometry" />
        </mxCell>
        <mxCell id="1x_nCAr4HbJ1y6fn0Rfu-20" value="&lt;div&gt;Advertencia&lt;/div&gt;" style="text;html=1;align=center;verticalAlign=middle;whiteSpace=wrap;rounded=0;fontStyle=1;fontSize=24;" vertex="1" parent="1">
          <mxGeometry x="2130" y="-270" width="300" height="30" as="geometry" />
        </mxCell>
        <mxCell id="1x_nCAr4HbJ1y6fn0Rfu-24" value="Verificar" style="strokeWidth=1;shadow=0;dashed=0;align=center;html=1;shape=mxgraph.mockup.buttons.button;strokeColor=#666666;fontColor=#ffffff;mainText=;buttonStyle=round;fontSize=17;fontStyle=1;fillColor=#008cff;whiteSpace=wrap;" vertex="1" parent="1">
          <mxGeometry x="2205" y="150" width="150" height="40" as="geometry" />
        </mxCell>
        <mxCell id="1x_nCAr4HbJ1y6fn0Rfu-44" style="edgeStyle=orthogonalEdgeStyle;rounded=0;orthogonalLoop=1;jettySize=auto;html=1;exitX=0.5;exitY=0;exitDx=0;exitDy=0;entryX=0;entryY=0.5;entryDx=0;entryDy=0;entryPerimeter=0;strokeColor=light-dark(#FF8000,#EDEDED);" edge="1" parent="1" source="1x_nCAr4HbJ1y6fn0Rfu-16" target="1x_nCAr4HbJ1y6fn0Rfu-18">
          <mxGeometry relative="1" as="geometry" />
        </mxCell>
        <mxCell id="1x_nCAr4HbJ1y6fn0Rfu-45" value="No" style="edgeLabel;html=1;align=center;verticalAlign=middle;resizable=0;points=[];" vertex="1" connectable="0" parent="1x_nCAr4HbJ1y6fn0Rfu-44">
          <mxGeometry x="-0.7143" y="2" relative="1" as="geometry">
            <mxPoint x="2" as="offset" />
          </mxGeometry>
        </mxCell>
        <mxCell id="1x_nCAr4HbJ1y6fn0Rfu-51" value="Primer nombre&lt;span style=&quot;color: rgb(255, 0, 0);&quot;&gt;*&lt;/span&gt;" style="text;html=1;align=left;verticalAlign=middle;whiteSpace=wrap;rounded=0;fontSize=14;" vertex="1" parent="1">
          <mxGeometry x="70" y="306" width="150" height="20" as="geometry" />
        </mxCell>
        <mxCell id="1x_nCAr4HbJ1y6fn0Rfu-52" value="Este campo es obligatorio" style="text;html=1;align=left;verticalAlign=top;whiteSpace=wrap;rounded=0;fontColor=#FF0000;labelBackgroundColor=none;labelBorderColor=none;strokeColor=#00FFFF;" vertex="1" parent="1">
          <mxGeometry x="70" y="366" width="340" height="20" as="geometry" />
        </mxCell>
        <mxCell id="1x_nCAr4HbJ1y6fn0Rfu-53" value="" style="rounded=1;whiteSpace=wrap;html=1;fillColor=none;" vertex="1" parent="1">
          <mxGeometry x="70" y="326" width="340" height="40" as="geometry" />
        </mxCell>
        <mxCell id="1x_nCAr4HbJ1y6fn0Rfu-54" value="Bebetiel" style="text;html=1;align=left;verticalAlign=middle;whiteSpace=wrap;rounded=0;fontSize=16;fontColor=#CDCDCD;labelBackgroundColor=none;" vertex="1" parent="1">
          <mxGeometry x="80" y="336" width="130" height="20" as="geometry" />
        </mxCell>
        <mxCell id="1x_nCAr4HbJ1y6fn0Rfu-55" value="Primer nombre&lt;span style=&quot;color: rgb(255, 0, 0);&quot;&gt;*&lt;/span&gt;" style="text;html=1;align=left;verticalAlign=middle;whiteSpace=wrap;rounded=0;fontSize=14;" vertex="1" parent="1">
          <mxGeometry x="1070" y="306" width="150" height="20" as="geometry" />
        </mxCell>
        <mxCell id="1x_nCAr4HbJ1y6fn0Rfu-56" value="" style="rounded=1;whiteSpace=wrap;html=1;fillColor=#CDCDCD;labelBackgroundColor=none;" vertex="1" parent="1">
          <mxGeometry x="1070" y="326" width="340" height="40" as="geometry" />
        </mxCell>
        <mxCell id="1x_nCAr4HbJ1y6fn0Rfu-57" value="Bebetiel" style="text;html=1;align=left;verticalAlign=middle;whiteSpace=wrap;rounded=0;fontSize=16;fontColor=#000000;labelBackgroundColor=none;" vertex="1" parent="1">
          <mxGeometry x="1080" y="336" width="130" height="20" as="geometry" />
        </mxCell>
        <mxCell id="1x_nCAr4HbJ1y6fn0Rfu-59" value="&lt;b&gt;&lt;font&gt;!&lt;/font&gt;&lt;/b&gt;" style="strokeWidth=2;html=1;shape=mxgraph.flowchart.extract_or_measurement;whiteSpace=wrap;verticalAlign=bottom;fontSize=48;" vertex="1" parent="1">
          <mxGeometry x="2232.5" y="-220" width="95" height="80" as="geometry" />
        </mxCell>
        <mxCell id="1x_nCAr4HbJ1y6fn0Rfu-60" value="&lt;div&gt;Tu número (&lt;span style=&quot;color: rgb(255, 0, 255);&quot;&gt;&lt;b&gt;{{signup.phone}}&lt;/b&gt;&lt;/span&gt;) ya estaba registrado en Patitas bajo otro nombre. Si deseas continuar como &lt;b&gt;&quot;&lt;span style=&quot;color: rgb(255, 0, 255);&quot;&gt;{{signup.name}}&lt;/span&gt;&quot;&lt;/b&gt; el antiguo registro será desactivado permanentemente.&lt;/div&gt;&lt;div&gt;&lt;br&gt;&lt;/div&gt;&lt;div&gt;Elige &lt;b&gt;&quot;Continuar&quot;&lt;/b&gt; si eres dueñ@ del número &lt;b&gt;&lt;span style=&quot;color: rgb(255, 0, 255);&quot;&gt;{{signup.phone}}&lt;/span&gt;&lt;/b&gt; y no reconoces el registro antiguo a nombre de &lt;b&gt;&lt;span style=&quot;color: rgb(255, 0, 255);&quot;&gt;{{existing.name.obfuscated()#A***}}&lt;/span&gt;&lt;/b&gt;&lt;span style=&quot;color: rgb(0, 0, 0);&quot;&gt;.&lt;/span&gt;&lt;/div&gt;&lt;div&gt;&lt;span style=&quot;color: rgb(0, 0, 0);&quot;&gt;&lt;br&gt;&lt;/span&gt;&lt;/div&gt;&lt;div&gt;&lt;span style=&quot;color: rgb(0, 0, 0);&quot;&gt;Si&lt;b&gt; cancelas&lt;/b&gt;, permanecerás como &lt;b&gt;usuario anónimo&lt;/b&gt;, y podrás reiniciar el proceso de ingreso.&lt;/span&gt;&lt;/div&gt;" style="text;html=1;align=left;verticalAlign=top;whiteSpace=wrap;rounded=0;fontSize=14;" vertex="1" parent="1">
          <mxGeometry x="2110" y="-130" width="340" height="220" as="geometry" />
        </mxCell>
      </root>
    </mxGraphModel>
  </diagram>
</mxfile>
